<svg id="visual" viewBox="0 0 960 540" width="960" height="540" xmlns="http://www.w3.org/2000/svg" xmlns:xlink="http://www.w3.org/1999/xlink" version="1.1"><rect x="0" y="0" width="960" height="540" fill="#ffffff"></rect><path d="M0 88L7.7 86.7C15.3 85.3 30.7 82.7 45.8 80.5C61 78.3 76 76.7 91.2 78.8C106.3 81 121.7 87 137 82.8C152.3 78.7 167.7 64.3 183 58.5C198.3 52.7 213.7 55.3 228.8 64.8C244 74.3 259 90.7 274.2 95.5C289.3 100.3 304.7 93.7 320 87C335.3 80.3 350.7 73.7 365.8 77.5C381 81.3 396 95.7 411.2 99.2C426.3 102.7 441.7 95.3 457 88.8C472.3 82.3 487.7 76.7 503 79.3C518.3 82 533.7 93 548.8 97.2C564 101.3 579 98.7 594.2 94.5C609.3 90.3 624.7 84.7 640 84.5C655.3 84.3 670.7 89.7 685.8 92C701 94.3 716 93.7 731.2 87.8C746.3 82 761.7 71 777 72.8C792.3 74.7 807.7 89.3 823 88.3C838.3 87.3 853.7 70.7 868.8 69.3C884 68 899 82 914.2 88.5C929.3 95 944.7 94 952.3 93.5L960 93L960 0L952.3 0C944.7 0 929.3 0 914.2 0C899 0 884 0 868.8 0C853.7 0 838.3 0 823 0C807.7 0 792.3 0 777 0C761.7 0 746.3 0 731.2 0C716 0 701 0 685.8 0C670.7 0 655.3 0 640 0C624.7 0 609.3 0 594.2 0C579 0 564 0 548.8 0C533.7 0 518.3 0 503 0C487.7 0 472.3 0 457 0C441.7 0 426.3 0 411.2 0C396 0 381 0 365.8 0C350.7 0 335.3 0 320 0C304.7 0 289.3 0 274.2 0C259 0 244 0 228.8 0C213.7 0 198.3 0 183 0C167.7 0 152.3 0 137 0C121.7 0 106.3 0 91.2 0C76 0 61 0 45.8 0C30.7 0 15.3 0 7.7 0L0 0Z" fill="#7900F1" stroke-linecap="round" stroke-linejoin="miter"></path></svg>