<svg id="visual" viewBox="0 0 960 540" width="960" height="540" xmlns="http://www.w3.org/2000/svg" xmlns:xlink="http://www.w3.org/1999/xlink" version="1.1"><rect x="0" y="0" width="960" height="540" fill="#ffffff"></rect><path d="M0 92L10.7 96.3C21.3 100.7 42.7 109.3 64 105.8C85.3 102.3 106.7 86.7 128 91.2C149.3 95.7 170.7 120.3 192 122.8C213.3 125.3 234.7 105.7 256 101.2C277.3 96.7 298.7 107.3 320 115.2C341.3 123 362.7 128 384 128.8C405.3 129.7 426.7 126.3 448 118.8C469.3 111.3 490.7 99.7 512 101.2C533.3 102.7 554.7 117.3 576 121C597.3 124.7 618.7 117.3 640 117.5C661.3 117.7 682.7 125.3 704 122.5C725.3 119.7 746.7 106.3 768 107.2C789.3 108 810.7 123 832 118.5C853.3 114 874.7 90 896 86.2C917.3 82.3 938.7 98.7 949.3 106.8L960 115L960 0L949.3 0C938.7 0 917.3 0 896 0C874.7 0 853.3 0 832 0C810.7 0 789.3 0 768 0C746.7 0 725.3 0 704 0C682.7 0 661.3 0 640 0C618.7 0 597.3 0 576 0C554.7 0 533.3 0 512 0C490.7 0 469.3 0 448 0C426.7 0 405.3 0 384 0C362.7 0 341.3 0 320 0C298.7 0 277.3 0 256 0C234.7 0 213.3 0 192 0C170.7 0 149.3 0 128 0C106.7 0 85.3 0 64 0C42.7 0 21.3 0 10.7 0L0 0Z" fill="#7900F1" stroke-linecap="round" stroke-linejoin="miter"></path></svg>